name C:\Users\u0101727\Documents\MyRepositories\paper-ad\predictivesimulations_2d/Results/PredSim_2D/IK_c13.mot
datacolumns 11
datarows 30
range 0.00000000 0.27821064
endheader
time	pelvis_tilt	pelvis_tx	pelvis_ty	hip_flexion_l	hip_flexion_r	knee_angle_l	knee_angle_r	ankle_angle_l	ankle_angle_r	lumbar_extension	
          0.00000000	        -15.15573932	          0.00000000	          0.88362354	          0.97900221	         38.08748274	        -16.23356648	        -10.56533819	          5.76785334	         13.84203081	          9.66404409	
          0.00959347	        -15.11770349	          0.01477737	          0.88283680	          0.88527585	         37.60299443	        -17.72709089	         -9.96017017	          4.56748437	         13.39402096	          9.76090872	
          0.01918694	        -15.06862288	          0.02981816	          0.88199903	          0.87028488	         37.02332767	        -19.38809690	         -9.64102354	          3.26332148	         12.89391422	          9.87081483	
          0.02878041	        -15.01105448	          0.04510535	          0.88113363	          0.94126197	         36.28040543	        -21.21347567	         -9.72847119	          1.83540808	         12.33963812	          9.99773708	
          0.03837388	        -14.95320859	          0.06045309	          0.88036753	          1.10284415	         35.41736556	        -23.18466206	        -10.04280850	          0.36916101	         11.77053388	         10.13224814	
          0.04796735	        -14.90606199	          0.07552066	          0.87993022	          1.38187393	         34.55940423	        -25.20920109	        -10.32308128	         -0.91396891	         11.22054092	         10.25110971	
          0.05756082	        -14.87817330	          0.09006101	          0.88008354	          1.80663168	         33.74377796	        -27.14692378	        -10.58144909	         -1.91602465	         10.68952615	         10.34040609	
          0.06715429	        -14.87187859	          0.10401116	          0.88098337	          2.37302435	         32.97293809	        -28.93519526	        -10.81278903	         -2.66635629	         10.19213871	         10.39899178	
          0.07674776	        -14.88249334	          0.11745439	          0.88258891	          3.06424663	         32.22836539	        -30.59466822	        -11.00511431	         -3.17440760	          9.74465567	         10.43301564	
          0.08634123	        -14.90342661	          0.13051491	          0.88469035	          3.85976554	         31.48894287	        -32.15446929	        -11.14949652	         -3.45293631	          9.35855615	         10.44950160	
          0.09593470	        -14.92931189	          0.14330017	          0.88705506	          4.74402968	         30.73786640	        -33.63221307	        -11.23912613	         -3.51752209	          9.04010952	         10.45375853	
          0.10552817	        -14.95671039	          0.15588443	          0.88950031	          5.70501577	         29.96569361	        -35.03635736	        -11.27209061	         -3.38319658	          8.79092940	         10.44897983	
          0.11512164	        -14.98372872	          0.16831464	          0.89190246	          6.73371940	         29.16789396	        -36.36821946	        -11.24881585	         -3.06625758	          8.60997994	         10.43692320	
          0.12471511	        -15.00940724	          0.18062088	          0.89418228	          7.82273911	         28.34292033	        -37.62470603	        -11.17130391	         -2.58344031	          8.49461717	         10.41860109	
          0.13430858	        -15.03325500	          0.19282344	          0.89628938	          8.96589707	         27.49114436	        -38.80092587	        -11.04303358	         -1.95160758	          8.44110026	         10.39462681	
          0.14390205	        -15.05500265	          0.20493740	          0.89819132	         10.15764300	         26.61421567	        -39.89079031	        -10.86884964	         -1.18770604	          8.44488962	         10.36544862	
          0.15349552	        -15.07448350	          0.21697517	          0.89986713	         11.39261833	         25.71473405	        -40.88754607	        -10.65479311	         -0.30890813	          8.50083669	         10.33148018	
          0.16308899	        -15.09157153	          0.22894767	          0.90130417	         12.66540648	         24.79600249	        -41.78398939	        -10.40788371	          0.66739309	          8.60335444	         10.29313503	
          0.17268246	        -15.10617503	          0.24086436	          0.90249758	         13.97064176	         23.86199834	        -42.57252136	        -10.13613083	          1.72363233	          8.74663427	         10.25079959	
          0.18227593	        -15.11828292	          0.25273287	          0.90345060	         15.30330474	         22.91715230	        -43.24501715	         -9.84734008	          2.84214004	          8.92481077	         10.20479971	
          0.19186940	        -15.12801942	          0.26456052	          0.90417387	         16.65742158	         21.96535701	        -43.79394263	         -9.54856307	          4.00510509	          9.13138364	         10.15561208	
          0.20146287	        -15.13554515	          0.27635352	          0.90468437	         18.02717369	         21.01079293	        -44.21160257	         -9.24736977	          5.19468539	          9.35867593	         10.10366170	
          0.21105634	        -15.14100083	          0.28811741	          0.90500290	         19.40706527	         20.05802937	        -44.49019919	         -8.95161251	          6.39306930	          9.59865701	         10.04929040	
          0.22064982	        -15.14453335	          0.29985817	          0.90515091	         20.79060642	         19.11186824	        -44.62278784	         -8.66966278	          7.58247048	          9.84339281	          9.99287816	
          0.23024329	        -15.14636433	          0.31158285	          0.90514867	         22.17087897	         18.17553430	        -44.60372764	         -8.40712712	          8.74522176	         10.08555655	          9.93496040	
          0.23983676	        -15.14681043	          0.32329977	          0.90501434	         23.54101354	         17.24984439	        -44.42893963	         -8.16528930	          9.86395558	         10.31850907	          9.87627613	
          0.24943023	        -15.14615194	          0.33501771	          0.90476342	         24.89309482	         16.33621617	        -44.09648337	         -7.94697624	         10.92192815	         10.53546419	          9.81756029	
          0.25902370	        -15.14463405	          0.34674485	          0.90440901	         26.21917998	         15.43678708	        -43.60540390	         -7.75578510	         11.90369362	         10.73035255	          9.75943327	
          0.26861717	        -15.14249827	          0.35849023	          0.90396182	         27.51049318	         14.55314113	        -42.95866293	         -7.59473476	         12.79585657	         10.89854468	          9.70262539	
          0.27821064	        -15.14000338	          0.37026234	          0.90343091	         28.75897572	         13.68620015	        -42.16084031	         -7.46586758	         13.58818566	         11.03709452	          9.64783463	
